<svg xmlns="http://www.w3.org/2000/svg" viewBox="0 0 900 260" role="img" aria-label="昇華実験装置 ①〜④">
  <style>.panel{fill:#fff;stroke:#cbd5e1;stroke-width:2}.line{stroke:#334155;stroke-width:4;fill:none;stroke-linecap:round;stroke-linejoin:round}.glass{fill:#eff6ff;stroke:#475569;stroke-width:3;opacity:.78}.cool{fill:#bfdbfe;stroke:#60a5fa;stroke-width:2}.warm{fill:#fed7aa;stroke:#fb923c;stroke-width:2}.label{font:800 28px sans-serif;fill:#1e293b}.small{font:600 14px sans-serif;fill:#475569}.purple{fill:#c4b5fd;opacity:.8}</style>
  <rect width="900" height="260" fill="#f8fafc"/>
  <g transform="translate(20 20)"><rect class="panel" width="200" height="220" rx="14"/><text class="label" x="16" y="35">①</text><path class="glass" d="M75 102c-30 10-50 34-50 62 0 31 30 48 75 48s75-17 75-48c0-28-20-52-50-62v-44H75z"/><path class="purple" d="M57 174c22 18 68 18 90 0v24H57z"/><path class="line" d="M58 218h84"/><text class="small" x="50" y="78">冷却なし</text></g>
  <g transform="translate(240 20)"><rect class="panel" width="200" height="220" rx="14"/><text class="label" x="16" y="35">②</text><path class="glass" d="M65 62c-18 8-28 23-28 39 0 23 24 36 63 36s63-13 63-36c0-16-10-31-28-39z"/><path class="cool" d="M55 91h90v26H55z"/><path class="glass" d="M70 132c-28 10-46 32-46 58 0 24 28 37 76 37s76-13 76-37c0-26-18-48-46-58z"/><path class="purple" d="M62 196c22 15 54 15 76 0"/><path class="line" d="M58 234h84"/><text class="small" x="70" y="153">冷水</text></g>
  <g transform="translate(460 20)"><rect class="panel" width="200" height="220" rx="14"/><text class="label" x="16" y="35">③</text><path class="glass" d="M50 86h100l-14 108H64z"/><path class="cool" d="M60 116h80v54H60z"/><path class="purple" d="M74 176h52v12H74z"/><text class="small" x="55" y="213">加熱なし</text></g>
  <g transform="translate(680 20)"><rect class="panel" width="200" height="220" rx="14"/><text class="label" x="16" y="35">④</text><path class="glass" d="M65 62c-18 8-28 23-28 39 0 23 24 36 63 36s63-13 63-36c0-16-10-31-28-39z"/><path class="warm" d="M55 91h90v26H55z"/><path class="glass" d="M70 132c-28 10-46 32-46 58 0 24 28 37 76 37s76-13 76-37c0-26-18-48-46-58z"/><path class="purple" d="M62 196c22 15 54 15 76 0"/><path class="line" d="M58 234h84"/><text class="small" x="70" y="153">温水</text></g>
</svg>
