<svg xmlns="http://www.w3.org/2000/svg" viewBox="0 0 880 700" width="880" height="700" role="img" aria-label="分離・精製の主な装置と方法（ろ過・蒸留・抽出・クロマトグラフィー）">
<title>分離・精製の主な装置と方法（ろ過・蒸留・抽出・クロマトグラフィー）</title>
<desc>ろ過は固体と液体、蒸留は沸点の差、抽出は溶けやすさの差、クロマトグラフィーは吸着・移動しやすさの差を利用して混合物を分離する。</desc>
<style>
  .t{font-family:'Hiragino Sans','Hiragino Kaku Gothic ProN','Noto Sans JP','Noto Sans CJK JP','Yu Gothic','Meiryo',sans-serif;fill:#2f2740;}
  .s{font-family:'Hiragino Sans','Hiragino Kaku Gothic ProN','Noto Sans JP','Noto Sans CJK JP','Yu Gothic','Meiryo',sans-serif;fill:#6b6280;}
  .f{font-family:'Hiragino Sans','Hiragino Kaku Gothic ProN','Noto Sans JP','Noto Sans CJK JP','Yu Gothic','Meiryo',sans-serif;fill:#9c93ab;}
  .b{font-weight:700;}
  .eb{font-weight:800;}
  text{dominant-baseline:middle;}
</style>
<rect x="0" y="0" width="880" height="700" fill="#ffffff"/>
<defs>
<marker id="ar0" viewBox="0 0 10 10" refX="9" refY="5" markerWidth="7" markerHeight="7" markerUnits="strokeWidth" orient="auto-start-reverse">
  <path d="M0,0.6 L10,5 L0,9.4 z" fill="#2f2740"/>
</marker>
<marker id="ar1" viewBox="0 0 10 10" refX="9" refY="5" markerWidth="7" markerHeight="7" markerUnits="strokeWidth" orient="auto-start-reverse">
  <path d="M0,0.6 L10,5 L0,9.4 z" fill="#3a7bd5"/>
</marker>
<marker id="ar2" viewBox="0 0 10 10" refX="9" refY="5" markerWidth="7" markerHeight="7" markerUnits="strokeWidth" orient="auto-start-reverse">
  <path d="M0,0.6 L10,5 L0,9.4 z" fill="#7c3aed"/>
</marker>
<marker id="ar3" viewBox="0 0 10 10" refX="9" refY="5" markerWidth="7" markerHeight="7" markerUnits="strokeWidth" orient="auto-start-reverse">
  <path d="M0,0.6 L10,5 L0,9.4 z" fill="#d94a6a"/>
</marker>
</defs>
<rect x="14" y="14" width="264" height="320" rx="12" fill="#faf7ff" stroke="#c9bce6" stroke-width="1.4"/>
<rect x="30" y="26" width="240" height="26" rx="13" fill="#f3ecff" stroke="none" stroke-width="0"/>
<text x="150" y="39" class="t eb" font-size="14" text-anchor="middle" fill="#5b21b6">ろ過</text>
<path d="M54,74 L60,114 L104,120 L112,80" fill="none" stroke="#2f2740" stroke-width="2" stroke-linecap="round" stroke-linejoin="round"/>
<path d="M58,92 L61,114 L104,119 L108,98 Z" fill="#eaf2fc" stroke="#3a7bd5" stroke-width="1.2" stroke-linecap="round" stroke-linejoin="round"/>
<line x1="104" y1="86" x2="138" y2="144" stroke="#9c93ab" stroke-width="4" stroke-linecap="round"/>
<path d="M110,98 Q122,120 136,142" fill="none" stroke="#3a7bd5" stroke-width="2.4" stroke-linecap="round" stroke-linejoin="round"/>
<path d="M104,130 L192,130 L154,184 L154,216 L142,216 L142,184 Z" fill="#ffffff" stroke="#2f2740" stroke-width="2" stroke-linecap="round" stroke-linejoin="round"/>
<path d="M112,135 L184,135 L151,180 L145,180 Z" fill="#fdf4e3" stroke="#d9932a" stroke-width="1.5" stroke-linecap="round" stroke-linejoin="round"/>
<circle cx="148" cy="228" r="3.2" fill="#3a7bd5" stroke="none" stroke-width="0"/>
<circle cx="148" cy="240" r="2.6" fill="#3a7bd5" stroke="none" stroke-width="0"/>
<path d="M106,250 L110,306 L186,306 L190,250" fill="#ffffff" stroke="#2f2740" stroke-width="2" stroke-linecap="round" stroke-linejoin="round"/>
<path d="M108,280 L110,305 L186,305 L188,280 Z" fill="#eaf2fc" stroke="#3a7bd5" stroke-width="1.2" stroke-linecap="round" stroke-linejoin="round"/>
<text x="42" y="80" class="s b" font-size="11" text-anchor="start">ろ過する液</text>
<text x="198" y="92" class="s b" font-size="11" text-anchor="start">ガラス棒</text>
<line x1="196" y1="92" x2="130" y2="120" stroke="#9c93ab" stroke-width="1" stroke-linecap="round" stroke-dasharray="3 3"/>
<text x="220" y="152" class="s b" font-size="11" text-anchor="start">ろ紙</text>
<line x1="218" y1="152" x2="168" y2="154" stroke="#9c93ab" stroke-width="1" stroke-linecap="round" stroke-dasharray="3 3"/>
<text x="200" y="280" class="s b" font-size="11" text-anchor="start">ろ液</text>
<line x1="198" y1="280" x2="182" y2="284" stroke="#9c93ab" stroke-width="1" stroke-linecap="round" stroke-dasharray="3 3"/>
<text x="150" y="328" class="t b" font-size="11.5" text-anchor="middle" fill="#5b21b6">固体と液体を分ける</text>
<rect x="292" y="14" width="574" height="320" rx="12" fill="#faf7ff" stroke="#c9bce6" stroke-width="1.4"/>
<rect x="308" y="26" width="400" height="26" rx="13" fill="#f3ecff" stroke="none" stroke-width="0"/>
<text x="508" y="39" class="t eb" font-size="14" text-anchor="middle" fill="#5b21b6">蒸留</text>
<path d="M361,96 L361,124 A34,34 0 1,0 379,124 L379,96" fill="#ffffff" stroke="#2f2740" stroke-width="2" stroke-linecap="round" stroke-linejoin="round"/>
<path d="M339,146 A34,34 0 0,0 401,146 A34,34 0 0,1 339,146 Z" fill="#eaf2fc" stroke="none" stroke-width="0" stroke-linecap="round" stroke-linejoin="round"/>
<path d="M339,148 A33,33 0 0,0 401,148" fill="#eaf2fc" stroke="#3a7bd5" stroke-width="1.4" stroke-linecap="round" stroke-linejoin="round"/>
<circle cx="358" cy="170" r="2.6" fill="#9c93ab" stroke="none" stroke-width="0"/>
<circle cx="374" cy="174" r="2.6" fill="#9c93ab" stroke="none" stroke-width="0"/>
<circle cx="386" cy="166" r="2.6" fill="#9c93ab" stroke="none" stroke-width="0"/>
<line x1="370" y1="78" x2="370" y2="124" stroke="#d94a6a" stroke-width="3" stroke-linecap="round"/>
<circle cx="370" cy="128" r="4" fill="#d94a6a" stroke="none" stroke-width="0"/>
<rect x="364" y="74" width="12" height="20" rx="3" fill="#ffffff" stroke="#2f2740" stroke-width="1.4"/>
<path d="M379,106 L422,118" fill="none" stroke="#2f2740" stroke-width="2" stroke-linecap="round" stroke-linejoin="round"/>
<path d="M422,103 L546,141 L546,163 L422,125 Z" fill="#eaf2fc" stroke="#2f2740" stroke-width="2" stroke-linecap="round" stroke-linejoin="round"/>
<line x1="422" y1="114" x2="546" y2="152" stroke="#9c93ab" stroke-width="1.4" stroke-linecap="round" stroke-dasharray="5 4"/>
<path d="M528,164 l0,20" fill="none" stroke="#3a7bd5" stroke-width="2.2" stroke-linecap="round" stroke-linejoin="round" marker-end="url(#ar1)"/>
<path d="M446,84 l0,18" fill="none" stroke="#3a7bd5" stroke-width="2.2" stroke-linecap="round" stroke-linejoin="round" marker-end="url(#ar1)"/>
<path d="M546,144 l16,6 l-4,22 l-14,-6 Z" fill="#ffffff" stroke="#2f2740" stroke-width="1.8" stroke-linecap="round" stroke-linejoin="round"/>
<path d="M572,172 L550,228 L610,228 L588,172 Z" fill="#ffffff" stroke="#2f2740" stroke-width="2" stroke-linecap="round" stroke-linejoin="round"/>
<path d="M556,212 L550,227 L610,227 L604,212 Z" fill="#eaf2fc" stroke="#3a7bd5" stroke-width="1.2" stroke-linecap="round" stroke-linejoin="round"/>
<circle cx="580" cy="184" r="2.6" fill="#3a7bd5" stroke="none" stroke-width="0"/>
<path d="M360,200 q4,-12 10,-6 q6,-14 10,0 q8,-6 10,6 Z" fill="#d9932a" stroke="none" stroke-width="0" stroke-linecap="round" stroke-linejoin="round"/>
<line x1="344" y1="202" x2="396" y2="202" stroke="#2f2740" stroke-width="2" stroke-linecap="round"/>
<text x="324" y="84" class="s b" font-size="11" text-anchor="start">温度計</text>
<line x1="338" y1="154" x2="314" y2="204" stroke="#9c93ab" stroke-width="1.1" stroke-linecap="round"/>
<text x="312" y="216" class="s b" font-size="11" text-anchor="middle">枝付きフラスコ</text>
<line x1="387" y1="167" x2="412" y2="186" stroke="#9c93ab" stroke-width="1.1" stroke-linecap="round"/>
<text x="416" y="190" class="s b" font-size="11" text-anchor="start" fill="#6b6280">沸騰石</text>
<text x="488" y="80" class="s b" font-size="11" text-anchor="middle">リービッヒ冷却器</text>
<text x="528" y="194" class="s b" font-size="10.5" text-anchor="middle" fill="#3a7bd5">冷却水</text>
<text x="626" y="214" class="s b" font-size="11" text-anchor="start">三角フラスコ</text>
<text x="624" y="184" class="s b" font-size="11" text-anchor="start" fill="#3a7bd5">留出液</text>
<text x="508" y="284" class="t b" font-size="11.5" text-anchor="middle" fill="#5b21b6">沸点の差で液体どうしを分ける</text>
<rect x="14" y="348" width="264" height="300" rx="12" fill="#faf7ff" stroke="#c9bce6" stroke-width="1.4"/>
<rect x="30" y="360" width="200" height="26" rx="13" fill="#f3ecff" stroke="none" stroke-width="0"/>
<text x="130" y="373" class="t eb" font-size="14" text-anchor="middle" fill="#5b21b6">抽出</text>
<path d="M120,412 L120,426 L96,436 L96,504 L130,558 L164,504 L164,436 L140,426 L140,412 Z" fill="#ffffff" stroke="#2f2740" stroke-width="2" stroke-linecap="round" stroke-linejoin="round"/>
<path d="M96,446 L164,446 L164,494 L96,494 Z" fill="#fdf4e3" stroke="none" stroke-width="0" stroke-linecap="round" stroke-linejoin="round"/>
<path d="M96,494 L164,494 L164,504 L130,558 L96,504 Z" fill="#eaf2fc" stroke="none" stroke-width="0" stroke-linecap="round" stroke-linejoin="round"/>
<line x1="96" y1="494" x2="164" y2="494" stroke="#2f2740" stroke-width="1.8" stroke-linecap="round"/>
<line x1="96" y1="446" x2="164" y2="446" stroke="#d9932a" stroke-width="1.4" stroke-linecap="round"/>
<path d="M96,436 L96,504 L130,558 L164,504 L164,436" fill="none" stroke="#2f2740" stroke-width="2" stroke-linecap="round" stroke-linejoin="round"/>
<circle cx="130" cy="564" r="7" fill="#ffffff" stroke="#2f2740" stroke-width="1.8"/>
<line x1="119" y1="564" x2="141" y2="564" stroke="#2f2740" stroke-width="2.4" stroke-linecap="round"/>
<line x1="130" y1="571" x2="130" y2="586" stroke="#2f2740" stroke-width="2" stroke-linecap="round"/>
<text x="178" y="468" class="s b" font-size="11" text-anchor="start" fill="#d9932a">ヘキサンの層</text>
<line x1="176" y1="468" x2="162" y2="470" stroke="#9c93ab" stroke-width="1" stroke-linecap="round" stroke-dasharray="3 3"/>
<text x="178" y="512" class="s b" font-size="11" text-anchor="start" fill="#3a7bd5">水の層</text>
<line x1="176" y1="512" x2="160" y2="508" stroke="#9c93ab" stroke-width="1" stroke-linecap="round" stroke-dasharray="3 3"/>
<text x="82" y="420" class="s b" font-size="11" text-anchor="end">分液ろうと</text>
<line x1="84" y1="420" x2="118" y2="422" stroke="#9c93ab" stroke-width="1" stroke-linecap="round" stroke-dasharray="3 3"/>
<text x="130" y="606" class="t b" font-size="11.5" text-anchor="middle" fill="#5b21b6">溶けやすさの差で分ける</text>
<rect x="292" y="348" width="574" height="300" rx="12" fill="#faf7ff" stroke="#c9bce6" stroke-width="1.4"/>
<rect x="400" y="360" width="340" height="26" rx="13" fill="#f3ecff" stroke="none" stroke-width="0"/>
<text x="570" y="373" class="t eb" font-size="14" text-anchor="middle" fill="#5b21b6">クロマトグラフィー</text>
<path d="M406,438 L410,546 L514,546 L518,438" fill="#ffffff" stroke="#2f2740" stroke-width="2" stroke-linecap="round" stroke-linejoin="round"/>
<path d="M414,520 L415,545 L509,545 L510,520 Z" fill="#eaf2fc" stroke="#3a7bd5" stroke-width="1.2" stroke-linecap="round" stroke-linejoin="round"/>
<rect x="446" y="414" width="32" height="126" rx="2" fill="#fffdf6" stroke="#b9b1c9" stroke-width="1.5"/>
<text x="462" y="404" class="t b" font-size="11.5" text-anchor="middle" fill="#5b21b6">開始前</text>
<circle cx="462" cy="512" r="5.5" fill="#4b3b6b" stroke="none" stroke-width="0"/>
<text x="406" y="560" class="s b" font-size="10.5" text-anchor="start">水性ペンの点をつける</text>
<path d="M530,478 l28,0" fill="none" stroke="#7c3aed" stroke-width="2.6" stroke-linecap="round" stroke-linejoin="round" marker-end="url(#ar2)"/>
<text x="544" y="462" class="t b" font-size="10" text-anchor="middle" fill="#7c3aed">水が上がる</text>
<path d="M578,438 L582,546 L686,546 L690,438" fill="#ffffff" stroke="#2f2740" stroke-width="2" stroke-linecap="round" stroke-linejoin="round"/>
<path d="M586,520 L587,545 L681,545 L682,520 Z" fill="#eaf2fc" stroke="#3a7bd5" stroke-width="1.2" stroke-linecap="round" stroke-linejoin="round"/>
<rect x="618" y="414" width="32" height="126" rx="2" fill="#fffdf6" stroke="#b9b1c9" stroke-width="1.5"/>
<text x="634" y="404" class="t b" font-size="11.5" text-anchor="middle" fill="#5b21b6">開始後</text>
<rect x="620" y="448" width="28" height="9" rx="3" fill="#e0554e" stroke="none" stroke-width="0"/>
<rect x="620" y="466" width="28" height="9" rx="3" fill="#e8a83c" stroke="none" stroke-width="0"/>
<rect x="620" y="486" width="28" height="9" rx="3" fill="#3f8ecf" stroke="none" stroke-width="0"/>
<line x1="616" y1="512" x2="652" y2="512" stroke="#9c93ab" stroke-width="1.2" stroke-linecap="round" stroke-dasharray="3 3"/>
<path d="M662,512 l0,-58" fill="none" stroke="#3a7bd5" stroke-width="2" stroke-linecap="round" stroke-linejoin="round" marker-end="url(#ar1)"/>
<text x="692" y="452" class="s b" font-size="10" text-anchor="start" fill="#d94a6a">軽い＝速い</text>
<text x="692" y="492" class="s b" font-size="10" text-anchor="start" fill="#3a7bd5">重い＝遅い</text>
<text x="570" y="584" class="t b" font-size="11.5" text-anchor="middle" fill="#5b21b6">吸着・移動しやすさの差で分ける</text>
<text x="440" y="676" class="t b" font-size="12.5" text-anchor="middle" fill="#6b6280">いずれも「混合物 → 純物質」に分ける操作。何の差を利用しているかで区別する。</text>
</svg>
